<?xml version="1.0" encoding="utf-8"?>
<!-- Generator: Adobe Illustrator 22.0.1, SVG Export Plug-In . SVG Version: 6.00 Build 0)  -->
<svg version="1.1" id="Layer_1" xmlns="http://www.w3.org/2000/svg" xmlns:xlink="http://www.w3.org/1999/xlink" x="0px" y="0px"
	 viewBox="0 0 300 300" style="enable-background:new 0 0 300 300;" xml:space="preserve">
<style type="text/css">
	.st0{fill:none;stroke:#85A960;stroke-width:25;stroke-linejoin:round;stroke-miterlimit:10;}
	.st1{fill:#C34795;}
</style>
<polygon class="st0" points="16,82.8 16,217.2 150.4,284.5 284.9,217.2 284.9,82.8 150.4,15.6 "/>
<g>
	<path class="st1" d="M94.5,202.5c1.9,0,4.3,1.4,7.2,4.2c4.7,4.4,11.3,8.2,19.9,11.4c8.6,3.2,16.7,4.7,24.2,4.7
		c3.5,0,6.1-0.6,7.8-1.8c1.7-1.2,2.6-2.9,2.6-5.2c0-2.3-1.2-5-3.6-8.1c-2.4-3.2-7.7-9.2-15.9-18.1c-20.1-21.5-33.2-36.7-39.1-45.4
		c-5.9-8.8-8.9-17.2-8.9-25.2c0-7,2-13.7,6.1-20.1c4.1-6.4,9.8-11.9,17.1-16.4c12.1-7.5,25.9-11.2,41.6-11.2
		c11.5,0,23.7,2.4,36.5,7.3c10,3.8,15,8,15,12.5c0,1.4-0.6,2.7-1.8,3.8c-1.2,1.1-2.5,1.7-4,1.7c-1.8,0-5.1-1.7-10-5.2
		c-9.9-7.1-20.7-10.7-32.4-10.7c-4.1,0-7.2,0.7-9.3,2c-2.1,1.3-3.2,3.3-3.2,6c0,3.2,1.9,7.2,5.8,12.1c3.9,4.9,11.8,13.1,23.7,24.7
		c11.6,11.3,19,18.7,22.1,22.3c3.1,3.5,6.2,7.6,9.1,12.1c5,7.9,7.4,16.4,7.4,25.6c0,14.4-7,26.1-20.9,35
		c-11.4,7.4-25.5,11.1-42.1,11.1c-18.5,0-35-4.1-49.3-12.4c-4.2-2.5-7.1-4.6-8.6-6.2c-1.5-1.6-2.3-3.3-2.3-5.2
		C89,204.3,90.8,202.5,94.5,202.5z"/>
</g>
</svg>
