<!-- Generator: Adobe Illustrator 22.0.1, SVG Export Plug-In . SVG Version: 6.00 Build 0)  --><svg version="1.1" id="Layer_1" xmlns="http://www.w3.org/2000/svg" xmlns:xlink="http://www.w3.org/1999/xlink" x="0px" y="0px" viewBox="0 0 300 300" style="enable-background:new 0 0 300 300;" xml:space="preserve" height="48" width="48"><style type="text/css">	.st0{fill:none;stroke:#BC358E;stroke-width:30;stroke-linejoin:round;stroke-miterlimit:10;}	.st1{fill:#CC3399;}</style><g>	<polygon class="st0" points="16,83 16,217 150,284 284,217 284,83 150,16  " />	<g>		<path class="st1" d="M81.1,214.3c2.3,0,5.2,1.7,8.8,5.2c5.8,5.5,14,10.1,24.6,14s20.5,5.8,29.8,5.8c4.3,0,7.5-0.7,9.6-2.2    s3.2-3.6,3.2-6.4c0-2.8-1.5-6.1-4.4-10s-9.5-11.3-19.6-22.3c-24.8-26.5-40.8-45.2-48.2-56c-7.3-10.8-11-21.1-11-31    c0-8.6,2.5-16.9,7.5-24.8s12-14.6,21-20.1c14.9-9.2,31.9-13.8,51.2-13.8c14.2,0,29.2,3,45,9c12.3,4.7,18.5,9.9,18.5,15.4    c0,1.7-0.7,3.3-2.2,4.7c-1.4,1.4-3.1,2.1-4.9,2.1c-2.2,0-6.3-2.1-12.3-6.4c-12.2-8.8-25.5-13.1-40-13.1c-5.1,0-8.9,0.8-11.5,2.4    s-3.9,4.1-3.9,7.4c0,3.9,2.4,8.9,7.2,14.9s14.5,16.1,29.1,30.4c14.3,14,23.4,23.1,27.2,27.4c3.9,4.3,7.6,9.3,11.2,15    c6.1,9.7,9.2,20.2,9.2,31.5c0,17.8-8.6,32.1-25.8,43.1c-14.1,9.1-31.4,13.7-51.9,13.7c-22.8,0-43.1-5.1-60.7-15.2    c-5.2-3.1-8.7-5.6-10.6-7.6s-2.9-4.1-2.9-6.4C74.3,216.6,76.6,214.4,81.1,214.3z" />	</g></g></svg>